<svg xmlns="http://www.w3.org/2000/svg"><symbol viewBox="0 0 94 32" id="icon-halo-logo"><title>halo-logo</title><style>.st0{fill:#fff}</style><path class="st0" d="M5.5 27.1V1.8h3.4v11.9c1.2-.8 1.7-1.1 2.7-1.5 1.7-.7 3.5-1.1 5.3-1.1 5.8 0 10.2 3.7 10.2 8.6v11.2s-3.3-1.1-3.3-3.5v-7.9c0-3.3-3-5.6-7.1-5.6-4.3 0-7.7 2.5-7.7 5.6V31c-.1-.2-3.5-1.1-3.5-3.9zm53.8.1V1.8h3.4v29s-3.4-.9-3.4-3.6zM78.1 11c6.7 0 12 4.4 12 9.9 0 5.6-5.5 10.2-12.1 10.2-6.5 0-11.9-4.6-11.9-10.1 0-5.6 5.3-10 12-10zm-8.5 10.1c0 3.9 4.1 7.5 8.6 7.5s8.5-3.5 8.5-7.6c0-4-4.1-7.6-8.5-7.6-4.5 0-8.6 3.6-8.6 7.7zm-15-.3c0-5.5-5.4-9.9-12-9.9-6.7 0-12 4.4-12 9.9C30.6 26.4 36 31 42.5 31c3.4 0 6.6-1.2 8.8-3.2.3 2.3 3.4 3.2 3.4 3.2V20.9c-.1 0-.1-.1-.1-.1zM51 24.2c-1.4 2.5-5.3 4.4-8.4 4.4C38.2 28.5 34 25 34 21s4.1-7.6 8.6-7.6c4.4 0 8.5 3.6 8.5 7.6 0 1.2-.1 3.2-.1 3.2z"/></symbol><symbol id="icon-svg-defs"><title>svg-defs</title>null</symbol></svg>